<svg width="85" height="34" fill="none" xmlns="http://www.w3.org/2000/svg"><path d="M27.126 19.774c.435.217.87.399 1.412.543.508.145 1.087.181 1.666.181.58 0 1.014-.072 1.304-.217.362-.18.58-.47.58-.869 0-.543-.435-.978-1.377-1.304-1.448-.47-2.281-.797-2.57-.941-.906-.58-1.377-1.449-1.377-2.608 0-1.231.543-2.173 1.593-2.752.87-.471 1.956-.725 3.296-.725 1.123 0 2.065.145 2.897.435l-.18 2.318c-.363-.181-.761-.29-1.196-.399-.434-.072-.869-.145-1.304-.145-.579 0-1.014.037-1.303.145-.471.145-.725.471-.725.906 0 .47.435.833 1.377 1.122 1.376.435 2.245.725 2.57.906.906.58 1.377 1.448 1.377 2.607 0 1.34-.507 2.318-1.521 2.934-.833.507-1.956.76-3.404.76-.58 0-1.16-.036-1.739-.144-.58-.073-1.122-.218-1.63-.363l.254-2.39zm9.778-8.438h3.006v4.6l3.405-4.6H46.9l-4.165 5.215 4.455 6.012h-3.803l-3.477-5.107-.036 5.107h-3.006V11.336h.036zm11.771 0h3.006v11.227h-3.006V11.336zm5.251 0h3.803l3.803 7.605v-7.605h2.716v11.227h-3.73l-3.876-7.678.073 7.678h-2.753V11.336h-.036zM4.49 22.346h3.66l4.31 11.227H9.163l-.797-2.39H4.165l-.905 2.39H.254L4.49 22.346zm1.848 2.317l-1.485 4.383h2.825l-1.34-4.383zm16.696 8.692c-.616.145-1.087.254-1.413.29-.58.109-1.231.145-1.92.145-1.738 0-3.15-.435-4.345-1.304-1.413-1.014-2.1-2.535-2.1-4.454 0-1.884.615-3.369 1.81-4.383 1.159-.977 2.68-1.448 4.6-1.448.579 0 1.086.036 1.593.145.507.108 1.087.253 1.738.434l-.253 2.427a5.74 5.74 0 00-2.897-.797c-1.05 0-1.884.326-2.572 1.014-.652.688-.978 1.557-.978 2.608 0 1.086.363 1.919 1.05 2.57.689.653 1.594.979 2.717.979.507 0 .978-.037 1.412-.145.435-.109.906-.254 1.413-.435l.145 2.354z" fill="#000"/><path d="M27.742 22.346H31.4l4.31 11.227h-3.296l-.797-2.39h-4.201l-.87 2.39h-3.042l4.238-11.227zm1.847 2.317l-1.485 4.383h2.825l-1.34-4.383zm7.315-2.317h4.093c2.137 0 3.73.398 4.78 1.159 1.232.869 1.848 2.354 1.848 4.418 0 1.992-.616 3.44-1.884 4.418-1.122.833-2.716 1.268-4.744 1.268h-4.093V22.346zm3.006 9.017h1.16c1.122 0 1.991-.29 2.57-.869.58-.58.906-1.412.906-2.571 0-1.123-.29-1.956-.905-2.499-.58-.58-1.449-.87-2.572-.87H39.91v6.81zm8.692-9.017h7.896v2.136h-4.926V26.8h4.636v2.137h-4.636v2.535h5.107v2.137h-8.077V22.346zm9.851 0h4.708l2.39 7.46 2.536-7.46h4.527v11.227H69.68l.037-8.62-2.898 8.62h-2.752l-2.716-8.62.036 8.62h-2.934V22.346zm19.449 6.989l-4.165-6.99h3.44l2.21 4.491 2.172-4.49H85l-4.129 6.99v4.237h-3.006v-4.238h.037zM0 .217h5.179c1.086 0 1.956.218 2.608.689.688.507 1.05 1.23 1.05 2.173 0 .688-.145 1.267-.471 1.665-.326.435-.833.725-1.485.942 1.521.326 2.282 1.159 2.282 2.535 0 1.195-.471 2.065-1.449 2.608-.724.434-1.738.615-2.933.615H0V.217zm3.006 4.455h.833c.58 0 1.05-.072 1.376-.217.435-.181.616-.507.616-.942 0-.47-.181-.797-.616-.978-.29-.108-.724-.18-1.34-.18h-.869v2.317zm0 4.672h.87c.868 0 1.484-.145 1.846-.362.29-.218.435-.507.435-.942 0-.543-.254-.905-.725-1.123C5.107 6.773 4.6 6.7 3.948 6.7h-.942v2.644zm17.492-2.137c0 1.485-.434 2.608-1.34 3.368-.869.725-2.028 1.087-3.585 1.087-1.521 0-2.716-.362-3.55-1.05-.905-.761-1.375-1.884-1.375-3.405V.217h3.005v6.447c0 .833.145 1.485.399 1.92.326.543.833.832 1.557.832.725 0 1.232-.29 1.521-.796.29-.471.399-1.123.399-1.92V.217h3.006v6.99h-.037zm2.065-6.99h3.006v11.227h-3.006V.217zm5.215 0h3.006v9.018h4.636v2.21h-7.606V.216h-.036zm8.945 0h4.093c2.137 0 3.73.399 4.78 1.16 1.232.869 1.848 2.353 1.848 4.418 0 1.992-.616 3.44-1.884 4.418-1.123.833-2.716 1.268-4.744 1.268h-4.093V.217zm3.006 9.018h1.16c1.122 0 1.991-.29 2.57-.869.58-.58.906-1.412.906-2.571 0-1.123-.29-1.956-.905-2.5-.58-.579-1.449-.868-2.572-.868H39.73v6.808zM48.675.217h3.006v11.227h-3.006V.217zm5.251 0h3.803l3.803 7.606V.217h2.716v11.227h-3.73l-3.912-7.677.073 7.678h-2.753V.216zm22.853 10.901c-.616.145-1.304.29-1.992.363-.688.108-1.485.145-2.354.145-1.739 0-3.151-.435-4.346-1.304-1.413-1.014-2.1-2.535-2.1-4.491 0-2.028.651-3.513 1.991-4.491C69.173.435 70.876 0 73.085 0a14 14 0 011.738.109c.58.072 1.123.18 1.63.398l-.217 2.427a4.412 4.412 0 00-1.413-.544c-.507-.108-.941-.18-1.34-.18-1.304 0-2.354.289-3.115.832-.869.616-1.303 1.557-1.303 2.825 0 1.087.362 1.92 1.05 2.571.688.652 1.594.978 2.716.978.435 0 .797-.072 1.05-.18v-2.21h-1.738V4.889h4.636v6.23z" fill="#000"/></svg>