<svg width="171" height="68" fill="none" xmlns="http://www.w3.org/2000/svg"><path d="M54.571 39.781c.875.437 1.749.802 2.842 1.093 1.02.291 2.186.364 3.351.364 1.166 0 2.04-.145 2.623-.437.729-.364 1.166-.947 1.166-1.748 0-1.093-.874-1.968-2.769-2.623-2.914-.948-4.59-1.603-5.173-1.895-1.821-1.165-2.768-2.914-2.768-5.246 0-2.477 1.093-4.371 3.205-5.537 1.75-.947 3.935-1.457 6.63-1.457 2.26 0 4.154.291 5.83.874l-.365 4.663c-.728-.364-1.53-.583-2.404-.801-.875-.146-1.749-.292-2.623-.292-1.166 0-2.04.073-2.623.292-.947.291-1.457.947-1.457 1.821 0 .947.874 1.676 2.768 2.259 2.769.874 4.518 1.457 5.173 1.821 1.822 1.166 2.769 2.915 2.769 5.246 0 2.696-1.02 4.663-3.06 5.902-1.676 1.02-3.935 1.53-6.849 1.53-1.166 0-2.331-.073-3.497-.292-1.166-.145-2.259-.437-3.279-.728l.51-4.809zm19.672-16.976h6.047v9.253l6.85-9.253h7.212l-8.379 10.492 8.962 12.094h-7.65L80.29 35.118l-.073 10.273H74.17V22.805h.073zm23.679 0h6.048V45.39h-6.048V22.805zm10.565 0h7.65l7.65 15.3v-15.3h5.465V45.39h-7.505l-7.796-15.446.146 15.446h-5.537V22.805h-.073zM9.035 44.954h7.358l8.67 22.586h-6.63l-1.602-4.808H8.379L6.557 67.54H.51l8.525-22.586zm3.716 4.663l-2.988 8.816h5.683l-2.695-8.816zm33.587 17.486c-1.238.292-2.185.51-2.841.583-1.166.219-2.477.291-3.862.291-3.497 0-6.338-.874-8.743-2.623-2.841-2.04-4.226-5.1-4.226-8.961 0-3.789 1.239-6.776 3.643-8.816 2.332-1.967 5.392-2.914 9.253-2.914 1.166 0 2.186.073 3.206.291 1.02.219 2.186.51 3.498.874l-.51 4.882c-1.895-1.093-3.862-1.603-5.83-1.603-2.112 0-3.788.656-5.172 2.04-1.312 1.384-1.967 3.133-1.967 5.246 0 2.186.728 3.861 2.113 5.173 1.384 1.311 3.205 1.967 5.464 1.967 1.02 0 1.967-.073 2.841-.291.875-.219 1.822-.51 2.842-.875l.291 4.736z" fill="#000"/><path d="M55.81 44.954h7.359l8.67 22.586h-6.63l-1.603-4.808h-8.452l-1.748 4.808h-6.12l8.524-22.586zm3.716 4.663l-2.988 8.816h5.684l-2.696-8.816zm14.717-4.663h8.233c4.299 0 7.505.802 9.618 2.332 2.477 1.748 3.715 4.735 3.715 8.888 0 4.008-1.238 6.922-3.788 8.89-2.259 1.675-5.465 2.55-9.545 2.55h-8.233v-22.66zm6.047 18.142h2.332c2.259 0 4.007-.583 5.173-1.749 1.166-1.165 1.821-2.841 1.821-5.173 0-2.258-.582-3.934-1.821-5.027-1.166-1.166-2.914-1.748-5.173-1.748H80.29v13.697zm17.487-18.142h15.883v4.299h-9.909v4.663h9.326v4.298h-9.326v5.1h10.273v4.3H97.777v-22.66zm19.817 0h9.472l4.809 15.009 5.1-15.009h9.107V67.54h-5.901l.072-17.34-5.828 17.34h-5.538l-5.464-17.34.073 17.34h-5.902V44.954zm39.126 14.062l-8.379-14.062h6.921l4.445 9.035 4.371-9.035H171l-8.306 14.062v8.524h-6.047v-8.524h.073zM0 .437h10.419c2.186 0 3.934.437 5.246 1.385 1.384 1.02 2.113 2.477 2.113 4.371 0 1.384-.292 2.55-.948 3.352-.655.874-1.675 1.457-2.987 1.894 3.06.656 4.59 2.331 4.59 5.1 0 2.404-.947 4.153-2.914 5.246-1.457.874-3.497 1.238-5.902 1.238H0V.438zM6.047 9.4h1.676c1.166 0 2.113-.146 2.769-.437.874-.365 1.238-1.02 1.238-1.895 0-.947-.364-1.602-1.238-1.967-.583-.218-1.457-.364-2.696-.364H6.047V9.4zm0 9.399h1.749c1.749 0 2.987-.292 3.716-.729.583-.437.874-1.02.874-1.894 0-1.093-.51-1.822-1.457-2.259-.656-.291-1.676-.437-2.987-.437H6.047v5.319zm35.191-4.3c0 2.987-.874 5.246-2.696 6.776-1.748 1.457-4.08 2.186-7.213 2.186-3.06 0-5.464-.729-7.14-2.113-1.821-1.53-2.768-3.789-2.768-6.849V.437h6.047v12.97c0 1.675.291 2.986.801 3.86.656 1.094 1.676 1.676 3.133 1.676s2.477-.582 3.06-1.603c.583-.947.802-2.258.802-3.861V.437h6.047V14.5h-.073zM45.391.437h6.047v22.586h-6.047V.438zm10.492 0h6.047V18.58h9.326v4.444h-15.3V.438h-.073zm17.996 0h8.233c4.299 0 7.504.802 9.617 2.332 2.478 1.748 3.716 4.736 3.716 8.889 0 4.007-1.238 6.921-3.788 8.888-2.26 1.676-5.465 2.55-9.545 2.55h-8.233V.437zm6.047 18.142h2.332c2.258 0 4.007-.583 5.173-1.748 1.165-1.166 1.821-2.842 1.821-5.173 0-2.26-.583-3.935-1.821-5.028-1.166-1.165-2.915-1.748-5.173-1.748h-2.332v13.697zM97.922.437h6.048v22.586h-6.048V.438zm10.565 0h7.65l7.65 15.3V.438h5.465v22.587h-7.505l-7.869-15.447.146 15.446h-5.537V.438zm45.974 21.931c-1.239.291-2.623.583-4.007.728-1.385.219-2.988.292-4.736.292-3.497 0-6.339-.875-8.743-2.623-2.842-2.04-4.226-5.1-4.226-9.035 0-4.08 1.311-7.067 4.007-9.034C139.161.874 142.585 0 147.029 0c1.166 0 2.332.073 3.498.219 1.165.145 2.258.364 3.278.801l-.437 4.882a8.878 8.878 0 00-2.841-1.093c-1.02-.219-1.895-.365-2.696-.365-2.623 0-4.736.583-6.266 1.676-1.749 1.239-2.623 3.133-2.623 5.683 0 2.186.729 3.862 2.113 5.173 1.384 1.312 3.206 1.967 5.464 1.967.875 0 1.603-.145 2.113-.364v-4.444h-3.497V9.836h9.326v12.532z" fill="#000"/></svg>